<?xml version="1.0" encoding="UTF-8"?>
<svg width="194px" height="46px" viewBox="0 0 194 46" version="1.1" xmlns="http://www.w3.org/2000/svg" xmlns:xlink="http://www.w3.org/1999/xlink">
  <g id="logomark" fill-opacity="0.7" fill="#fff">
    <g id="outer" fill-rule="nonzero">
      <path d="M22.9068826,0 C17.1448661,-0.000232565999 12.1632493,4.01909904 10.9453725,9.65093798 C9.72749573,15.2827769 12.6033228,21.001269 17.8506073,23.3817814 C17.7574084,22.400935 17.9515286,21.4141569 18.4093117,20.5417004 C17.6071213,20.105633 16.872,19.5561738 16.2266397,18.9102834 C13.3497579,16.0332595 12.6393322,11.636909 14.4636312,8.00020056 C16.2879302,4.36349212 20.2366616,2.30433626 24.2628923,2.89015284 C28.2891231,3.47596941 31.4873375,6.57500589 32.1996536,10.5807918 C32.9119696,14.5865777 30.9781845,18.5981956 27.4007287,20.5361134 C27.8573908,21.4076223 28.0514663,22.3928789 27.9594332,23.3724696 C32.3278557,21.3864577 35.1341949,17.032446 35.1387854,12.2337652 C35.1387855,5.47797046 29.6626772,0.00102843579 22.9068826,0 Z" id="Shape"></path>
      <path d="M21.7894737,6.70445344 C18.4014477,10.1027905 17.3095354,15.1663517 18.9959514,19.6589474 C19.0965182,19.5397571 19.2008097,19.4224291 19.3125506,19.3106883 C19.8968062,18.7318315 20.6134021,18.3041752 21.4002429,18.0647773 C20.1604925,13.9228098 21.892367,9.46796522 25.6042303,7.25099724 C29.3160936,5.03402926 34.0595122,5.62140449 37.1185008,8.6768038 C40.1774895,11.7322031 40.7704333,16.4749288 38.5578248,20.1893924 C36.3452163,23.903856 31.8924081,25.6409596 27.7489879,24.4060729 C27.5055708,25.1939734 27.0726595,25.9101635 26.4881781,26.4919028 C26.3764372,26.6036437 26.2609717,26.7097976 26.1417814,26.808502 C31.840789,28.9473097 38.2453063,26.5708461 41.1697342,21.2322219 C44.094162,15.8935978 42.6487629,9.21705362 37.7781608,5.56596858 C32.9075588,1.91488354 26.0936018,2.40007577 21.7894737,6.70445344 Z" id="Shape"></path>
      <path d="M6.70445344,6.70445344 C2.61018168,10.773934 1.91833063,17.1518837 5.04475936,22.0046331 C8.17118808,26.8573824 14.2647317,28.8637788 19.6626721,26.8178138 C19.5412678,26.7182827 19.4250298,26.6126118 19.314413,26.5012146 C18.7331716,25.9152465 18.3041494,25.195947 18.0647773,24.4060729 C13.9228055,25.6441261 9.46913614,23.9105083 7.25420359,20.1979917 C5.03927104,16.485475 5.62912376,11.7428307 8.68597722,8.68597722 C11.7428307,5.62912376 16.485475,5.03927104 20.1979917,7.25420359 C23.9105083,9.46913614 25.6441261,13.9228055 24.4060729,18.0647773 C25.1940381,18.3070983 25.9103389,18.7394371 26.4919028,19.3237247 C26.6036437,19.4354656 26.7097976,19.5509312 26.808502,19.6701215 C28.8518077,14.2748133 26.8474238,8.18529812 21.9990129,5.05842116 C17.150602,1.93154419 10.776501,2.61753818 6.70445344,6.70445344 Z" id="Shape"></path>
      <path d="M20.5417004,27.397004 C18.4848584,31.2007806 14.1076831,33.1221086 9.91555513,32.0612702 C5.72342716,31.0004318 2.78699455,27.2283595 2.78699455,22.9040891 C2.78699455,18.5798186 5.72342716,14.8077464 9.91555513,13.7469079 C14.1076831,12.6860695 18.4848584,14.6073975 20.5417004,18.4111741 C21.413495,17.9553238 22.3985095,17.761296 23.3780567,17.8524696 C20.9992254,12.6235444 15.2962177,9.76107795 9.68201194,10.97812 C4.06780622,12.195162 0.0620874472,17.1622767 0.0620874472,22.9068826 C0.0620874472,28.6514885 4.06780622,33.6186032 9.68201194,34.8356452 C15.2962177,36.0526872 20.9992254,33.1902207 23.3780567,27.9612955 C22.3979536,28.0509705 21.4128478,27.8549842 20.5417004,27.397004 Z" id="Shape"></path>
      <path d="M26.4919028,26.4919028 C25.9103389,27.0761905 25.1940381,27.5085292 24.4060729,27.7508502 C25.6409596,31.8942704 23.903856,36.3470786 20.1893924,38.5596871 C16.4749288,40.7722957 11.7322031,40.1793518 8.6768038,37.1203632 C5.62140449,34.0613746 5.03402926,29.317956 7.25099724,25.6060927 C9.46796522,21.8942294 13.9228098,20.1623548 18.0647773,21.4021053 C18.3068217,20.6134733 18.7391775,19.8965044 19.3237247,19.314413 C19.4354656,19.2026721 19.5509312,19.0983806 19.6701215,18.9996761 C14.2779111,16.973514 8.20273476,18.9834288 5.08288897,23.8257245 C1.96304318,28.6680202 2.64381595,35.0307299 6.71750667,39.1033592 C10.7911974,43.1759885 17.1540842,43.8551032 21.9955667,40.7339957 C26.8370493,37.6128881 28.845381,31.5371883 26.8178138,26.1455061 C26.7152426,26.2665322 26.6064593,26.3821533 26.4919028,26.4919028 Z" id="Shape"></path>
      <path d="M27.3951417,25.2702024 C31.1841688,27.3258809 33.0947536,31.6909403 32.0343285,35.8692221 C30.9739034,40.0475039 27.2129738,42.973164 22.9022267,42.973164 C18.5914797,42.973164 14.83055,40.0475039 13.7701249,35.8692221 C12.7096998,31.6909403 14.6202846,27.3258809 18.4093117,25.2702024 C17.9517332,24.3976739 17.757625,23.4109571 17.8506073,22.4301215 C12.5991639,24.8099042 9.71968994,30.531086 10.9370255,36.1666089 C12.154361,41.8021317 17.1385862,45.8246671 22.9040891,45.8246671 C28.669592,45.8246671 33.6538171,41.8021317 34.8711527,36.1666089 C36.0884882,30.531086 33.2090142,24.8099042 27.9575709,22.4301215 C28.049195,23.4113108 27.8538007,24.3979872 27.3951417,25.2702024 Z" id="Shape"></path>
      <path d="M26.1455061,18.9959514 C26.2646964,19.0965182 26.3801619,19.2008097 26.4919028,19.3125506 C27.0761905,19.8941145 27.5085292,20.6104154 27.7508502,21.3983806 C31.8931855,20.162295 36.345911,21.8971272 38.5601515,25.6098066 C40.774392,29.322486 40.1845694,34.0646919 37.1283161,37.1218417 C34.0720628,40.1789915 29.3300302,40.7702049 25.6167015,38.5570535 C21.9033728,36.343902 20.1672347,31.8916855 21.4021053,27.7489879 C20.6138496,27.5051512 19.8971505,27.0723187 19.314413,26.4881781 C19.2026721,26.3764372 19.0983806,26.2609717 18.9996761,26.1417814 C16.9724451,31.5337348 18.9813547,37.6094303 23.8232656,40.7301235 C28.6651764,43.8508167 35.028161,43.1709481 39.1014169,39.0976922 C43.1746728,35.0244363 43.8545414,28.6614517 40.7338482,23.8195409 C37.613155,18.97763 31.5374594,16.9687204 26.1455061,18.9959514 Z" id="Shape"></path>
      <path d="M33.5725506,10.6675304 C28.7730014,10.6727852 24.4187576,13.4807301 22.4338462,17.8506073 C23.4134423,17.7584664 24.3987294,17.9525479 25.2702024,18.4093117 C27.3264441,14.6085341 31.7008964,12.6892148 35.8900801,13.7497715 C40.0792638,14.8103283 43.013473,18.5799485 43.013473,22.9012955 C43.013473,27.2226426 40.0792638,30.9922628 35.8900801,32.0528196 C31.7008964,33.1133763 27.3264441,31.194057 25.2702024,27.3932794 C24.3993828,27.8499929 23.4147039,28.0440821 22.4357085,27.9519838 C24.9525048,33.4935051 31.1606037,36.3416528 37.0027033,34.6350205 C42.8448029,32.9283882 46.5434424,27.1862194 45.6813767,21.1613074 C44.819311,15.1363955 39.6588238,10.6618218 33.5725506,10.6619433 L33.5725506,10.6675304 Z" id="Shape"></path>
    </g>
    <g id="middle" transform="translate(8.000000, 8.000000)" fill-rule="nonzero">
      <path d="M14.9068826,0.265101215 C10.4323495,0.268179903 6.80521597,3.89364694 6.80008097,8.36817814 C6.79484696,10.5178071 7.64909612,12.5803427 9.17271255,14.0967611 C9.3821129,14.3048173 9.6021657,14.5018702 9.83198381,14.6871255 C9.87649891,13.6475146 10.2399777,12.6468101 10.8730364,11.8209717 C10.0450093,10.8614717 9.59074813,9.63556159 9.59360324,8.36817814 C9.59100168,6.0144971 11.1382573,3.94000913 13.3949926,3.27145312 C15.6517278,2.60289711 18.0792716,3.49985396 19.359126,5.47514987 C20.6389804,7.45044579 20.4656507,10.0325877 18.9332794,11.8191093 C19.5663381,12.6449477 19.9298169,13.6456522 19.974332,14.6852632 C20.2015385,14.5002699 20.4206748,14.3041026 20.6317409,14.0967611 C22.9477503,11.7798176 23.6407999,8.29625995 22.3879543,5.26929695 C21.1351087,2.24233396 18.1828742,0.267542117 14.9068826,0.265101215 Z" id="Shape"></path>
      <path d="M13.7894737,4.55222672 C12.0527677,6.28882207 11.1996488,8.72072504 11.4708502,11.1617004 C12.2381196,10.4587013 13.2042034,10.0104644 14.2364372,9.87854251 C14.44906,7.05958522 16.8338569,4.90196645 19.6599621,4.97166804 C22.4860672,5.04136964 24.7616005,7.31392838 24.8349987,10.1399399 C24.9083969,12.9659515 22.7538994,15.3535686 19.9352227,15.5698785 C19.800267,16.6006854 19.3501645,17.5646331 18.6464777,18.3298785 C22.3992438,18.7362029 25.9351461,16.4962916 27.1711584,12.9296929 C28.4071706,9.36309415 27.015548,5.41553871 23.8161055,3.41256066 C20.6166631,1.40958262 16.4577753,1.88229802 13.7894737,4.55222672 Z" id="Shape"></path>
      <path d="M21.44,6.80008097 C18.9841605,6.80066554 16.6615393,7.91675694 15.1266397,9.83384615 C16.1652739,9.87755636 17.1650249,10.2411613 17.9890688,10.8748988 C20.1340042,9.03714114 23.3426822,9.2019461 25.2880443,11.2497907 C27.2334063,13.2976353 27.2334063,16.5105429 25.2880443,18.5583874 C23.3426822,20.606232 20.1340042,20.771037 17.9890688,18.9332794 C17.1645111,19.5673767 16.1640546,19.9310017 15.1247773,19.974332 C17.4893471,22.9183321 21.574252,23.8383103 24.9725803,22.1921961 C28.3709085,20.546082 30.1813215,16.7704744 29.3370857,13.0900406 C28.49285,9.40960678 25.2178823,6.80050839 21.4418623,6.80008097 L21.44,6.80008097 Z" id="Shape"></path>
      <path d="M18.6464777,11.4764372 C19.3510872,12.2410644 19.8013334,13.20532 19.9352227,14.2364372 C22.7528373,14.4529712 24.9067239,16.8392101 24.8344829,19.6642092 C24.762242,22.4892084 22.4892084,24.762242 19.6642092,24.8344829 C16.8392101,24.9067239 14.4529712,22.7528373 14.2364372,19.9352227 C13.2057678,19.7997955 12.2419559,19.3497565 11.4764372,18.6464777 C11.1009617,22.0653145 12.9246787,25.3487031 16.0255606,26.8366407 C19.1264425,28.3245782 22.8288059,27.6928426 25.2608243,25.2608243 C27.6928426,22.8288059 28.3245782,19.1264425 26.8366407,16.0255606 C25.3487031,12.9246787 22.0653145,11.1009617 18.6464777,11.4764372 Z" id="Shape"></path>
      <path d="M18.9351417,17.9872065 C20.7750386,20.1334237 20.6106896,23.3449101 18.5613116,25.2920923 C16.5119335,27.2392745 13.2962446,27.2392745 11.2468666,25.2920923 C9.19748855,23.3449101 9.03313959,20.1334237 10.8730364,17.9872065 C10.239498,17.1624825 9.87651793,16.1620106 9.83384615,15.122915 C9.60339998,15.3060695 9.38388725,15.5025738 9.17643725,15.711417 C6.58666431,18.3042132 6.06049119,22.3128814 7.89341128,25.4861951 C9.72633136,28.6595088 13.4616165,30.2067397 17.0015693,29.2589791 C20.5415221,28.3112184 23.0040549,25.1046297 23.0062348,21.44 C23.0127151,19.290125 22.158275,17.2271283 20.6336032,15.711417 C20.4242029,15.5033608 20.2041501,15.3063079 19.974332,15.1210526 C19.9304748,16.1604826 19.5676408,17.1612023 18.9351417,17.9872065 Z" id="Shape"></path>
      <path d="M15.5717409,19.9352227 C15.3563532,22.7539703 12.9694408,24.909249 10.1434051,24.8367751 C7.31736944,24.7643012 5.04406645,22.489511 4.97344086,19.6634285 C4.90281527,16.837346 7.05965461,14.4518437 9.87854251,14.2382996 C10.0128419,13.2071198 10.4622749,12.2425625 11.1654251,11.4764372 C7.74764394,11.102525 4.46611391,12.9266971 2.97955388,16.026887 C1.49299385,19.127077 2.125241,22.8279291 4.55671262,25.2587694 C6.98818423,27.6896096 10.6892005,28.3208956 13.7890042,26.8335305 C16.888808,25.3461653 18.7121278,22.0641617 18.3373279,18.6464777 C17.5700941,19.3504852 16.60428,19.8005481 15.5717409,19.9352227 Z" id="Shape"></path>
      <path d="M11.8191093,18.9332794 C10.8593204,19.7595754 9.63465321,20.2136209 8.36817814,20.2127126 C6.01365128,20.2171001 3.93745438,18.6703215 3.26792035,16.4129912 C2.59838632,14.1556609 3.49545052,11.727 5.47159316,10.4468921 C7.4477358,9.16678423 10.0309046,9.34101583 11.817247,10.8748988 C12.6415274,10.2415921 13.6411374,9.87803839 14.6796761,9.83384615 C12.3149733,6.89079422 8.23053577,5.97186429 4.83321719,7.61855809 C1.43589862,9.2652519 -0.373123666,13.0407652 0.472160537,16.7202854 C1.31744474,20.3998055 4.5928142,23.007298 8.36817814,23.0062348 C10.5166848,23.0076287 12.5770852,22.1523681 14.0930364,20.6298785 C14.3013062,20.422538 14.4977821,20.2036788 14.6815385,19.974332 C13.6431664,19.9293 12.6438015,19.5658355 11.8191093,18.9332794 Z" id="Shape"></path>
      <path d="M4.55222672,4.55408907 C2.11655798,6.98358426 1.48186199,10.6868658 2.96951833,13.7887696 C4.45717467,16.8906735 7.74239455,18.7139846 11.1617004,18.3354656 C10.459355,17.5684944 10.0111896,16.6032149 9.87854251,15.5717409 C7.05878877,15.3592875 4.90071042,12.9734574 4.97127931,10.146592 C5.04184819,7.31972669 7.31628235,5.04454828 10.1431244,4.97305452 C12.9699665,4.90156077 15.3565026,7.05885843 15.5698785,9.87854251 C16.6005038,10.0128569 17.5644617,10.4623136 18.3298785,11.1654251 C18.7065202,7.74681119 16.8825402,4.4632504 13.7811155,2.9766621 C10.6796908,1.4900738 6.97756293,2.12483667 4.54850202,4.55967611 L4.55222672,4.55408907 Z" id="Shape"></path>
    </g>
    <g id="Inner" transform="translate(16.000000, 16.000000)" fill-rule="nonzero">
      <path d="M1.82825911,6.90688259 C1.82726995,5.5596449 2.36202002,4.26730234 3.31466118,3.31466118 C4.26730234,2.36202002 5.5596449,1.82726995 6.90688259,1.82825911 C7.03538462,1.82825911 7.16016194,1.82825911 7.27935223,1.84315789 C5.72085547,0.889390945 3.71180784,1.12778635 2.4197971,2.4197971 C1.12778635,3.71180784 0.889390945,5.72085547 1.84315789,7.27935223 C1.83384615,7.16016194 1.82825911,7.03352227 1.82825911,6.90688259 Z" id="Shape"></path>
      <path d="M3.31441296,10.4919028 C1.33323703,8.50954869 1.33323703,5.2967671 3.31441296,3.31441296 C3.40380567,3.22502024 3.50064777,3.13935223 3.59376518,3.05740891 C1.80994088,3.47931361 0.550025342,5.07198104 0.550025342,6.90502024 C0.550025342,8.73805945 1.80994088,10.3307269 3.59376518,10.7526316 C3.50064777,10.6706883 3.40566802,10.5831579 3.31441296,10.4919028 Z" id="Shape"></path>
      <path d="M6.90688259,11.979919 C4.10379163,11.9809481 1.83031548,9.70997299 1.82825911,6.90688259 C1.82825911,6.78024291 1.82825911,6.65360324 1.84315789,6.53441296 C0.8970409,8.09268332 1.13900492,10.095845 2.428947,11.3840195 C3.71888907,12.6721939 5.72238071,12.9114108 7.27935223,11.9631579 C7.16016194,11.9724696 7.03352227,11.979919 6.90688259,11.979919 Z" id="Shape"></path>
      <path d="M10.4919028,10.4919028 C9.54039688,11.4442404 8.24937866,11.979328 6.90315789,11.979328 C5.55693713,11.979328 4.26591891,11.4442404 3.31441296,10.4919028 C3.22502024,10.4025101 3.13935223,10.305668 3.05740891,10.214413 C3.47931361,11.9982373 5.07198104,13.2581528 6.90502024,13.2581528 C8.73805945,13.2581528 10.3307269,11.9982373 10.7526316,10.214413 C10.6706883,10.305668 10.5831579,10.4006478 10.4919028,10.4919028 Z" id="Shape"></path>
      <path d="M11.979919,6.90688259 C11.9768399,9.70736683 9.70736683,11.9768399 6.90688259,11.979919 C6.78024291,11.979919 6.65360324,11.979919 6.53441296,11.9631579 C8.09447991,12.9244853 10.1106638,12.6878581 11.4057528,11.3914386 C12.7008418,10.095019 12.9353985,8.07859314 11.9724696,6.51951417 C11.9724696,6.64615385 11.979919,6.77465587 11.979919,6.90688259 Z" id="Shape"></path>
      <path d="M10.4919028,3.31441296 C11.4442404,4.26591891 11.979328,5.55693713 11.979328,6.90315789 C11.979328,8.24937866 11.4442404,9.54039688 10.4919028,10.4919028 C10.4025101,10.5831579 10.305668,10.6669636 10.214413,10.7489069 C11.9982373,10.3270022 13.2581528,8.73433475 13.2581528,6.90129555 C13.2581528,5.06825634 11.9982373,3.47558891 10.214413,3.05368421 C10.305668,3.13748988 10.4006478,3.22315789 10.4919028,3.31441296 Z" id="Shape"></path>
      <path d="M6.90688259,1.82825911 C9.70997299,1.83031548 11.9809481,4.10379163 11.979919,6.90688259 C11.979919,7.03538462 11.979919,7.16016194 11.9631579,7.27935223 C12.9264414,5.71923669 12.6907273,3.70154725 11.3937738,2.40548116 C10.0968203,1.10941507 8.07897001,0.87508204 6.51951417,1.8394332 C6.64615385,1.83384615 6.77465587,1.82825911 6.90688259,1.82825911 Z" id="Shape"></path>
      <path d="M3.31441296,3.31441296 C5.2967671,1.33323703 8.50954869,1.33323703 10.4919028,3.31441296 C10.5831579,3.40380567 10.6669636,3.50064777 10.7489069,3.59376518 C10.3270022,1.80994088 8.73433475,0.550025342 6.90129555,0.550025342 C5.06825634,0.550025342 3.47558891,1.80994088 3.05368421,3.59376518 C3.13748988,3.50064777 3.22315789,3.40566802 3.31441296,3.31441296 Z" id="Shape"></path>
    </g>
  </g>
  <g id="logotype" fill="#fff" transform="translate(56 10)">
      <path fill-rule="nonzero" d="M22.5035628,13.0279352 C22.5035628,17.5590283 21.5965992,20.1216194 19.5647773,21.5276923 L19.5647773,21.659919 L22.9710121,21.5351417 L22.9710121,23.9729555 L11.5659919,23.9729555 C3.60072874,23.9729555 0.693603239,21.408502 0.693603239,13.0353846 C0.693603239,4.66226721 3.5951417,1.84267207 11.6032389,1.84267207 C19.6597571,1.84267207 22.5035628,4.65668016 22.5035628,13.0279352 Z M11.5976518,21.5947368 C17.8160324,21.5947368 19.4716599,19.6578947 19.4716599,13.0279352 C19.4716599,6.43522267 17.8160324,4.21902834 11.5976518,4.21902834 C5.37927126,4.21902834 3.72550607,6.43522267 3.72550607,13.0279352 C3.72550607,19.6523077 5.3811336,21.5891498 11.6032389,21.5891498 L11.5976518,21.5947368 Z"/>
      <polygon points="28.096 14.278 38.339 14.278 38.339 16.654 28.096 16.654"/>
      <path d="M52.9045344,23.9655061 C45.5948178,23.9655061 43.7790283,19.0898785 43.7790283,12.9981377 C43.7790283,6.90639676 45.5612955,2.09222672 53.0591093,2.09222672 L61.5272065,2.09222672 L61.5272065,4.468583 L54.0293927,4.468583 C48.5615385,4.468583 46.8127935,7.06097166 46.8127935,12.9981377 C46.8127935,18.9353036 48.500081,21.5891498 53.8729555,21.5891498 L61.8419433,21.5891498 L61.8419433,23.9655061 L52.9045344,23.9655061 Z"/>
      <polygon points="74.714 23.966 74.714 4.469 65.872 4.469 65.872 2.092 86.47 2.092 86.47 4.469 77.62 4.469 77.62 23.966"/>
      <path d="M91.1255061 5.40348178C91.1255061 3.06064777 92.2820243 2.09222672 94.3436437 2.09222672L104.459919 2.09222672C108.49004 2.09222672 109.771336 4.65668016 109.771336 8.71659919 109.771336 12.9050202 108.583158 15.6855061 104.804453 15.6855061L101.265992 15.6855061 101.265992 15.840081 110.233198 23.9655061 106.365101 23.9655061 97.9845344 16.2777328C97.5785425 15.9052632 97.1725506 15.4359514 97.1725506 14.9033198L97.1725506 14.3967611C97.1725506 13.7393522 97.6418623 13.3017004 98.4761943 13.3017004L103.819271 13.3017004C106.47498 13.3017004 106.726397 11.3648583 106.726397 8.7091498 106.726397 5.99012146 106.288745 4.4611336 103.351822 4.4611336L95.5951417 4.4611336C94.5931984 4.4611336 94.0326316 4.77214575 94.0326316 5.95101215L94.0326316 23.9487449 91.1255061 23.9487449 91.1255061 5.40348178zM118.92664 23.9655061C117.33247 23.9655061 116.146154 23.3397571 116.146154 21.3395951L116.146154 2.09222672 119.060729 2.09222672 119.060729 20.2761943C119.060729 21.2446154 119.373603 21.5891498 120.435142 21.5891498L132.559028 21.5891498 132.559028 23.9655061 118.92664 23.9655061z"/>
      <path fill-rule="nonzero" d="M132.1,3.12095621 C132.1,1.33364611 132.776895,0.65 134.618051,0.65 C136.350903,0.65 137.1,1.19512958 137.1,3.12095621 C137.1,4.97529044 136.384747,5.65 134.487184,5.65 C132.837816,5.65 132.1,4.95294906 132.1,3.12095621 Z M136.612635,3.17904379 C136.612635,1.71568365 136.201986,1.04320822 134.656408,1.04320822 C133.250722,1.04320822 132.558032,1.42747989 132.558032,3.0963807 C132.558032,4.53516533 132.934838,5.25455764 134.457852,5.25455764 C135.953791,5.25455764 136.621661,4.85911528 136.621661,3.17904379 L136.612635,3.17904379 Z M133.641667,4.28941793 L133.641667,2.37767613 C133.641667,2.21250726 133.678932,2.06666667 134.039168,2.06666667 L134.951292,2.06666667 C135.419776,2.06666667 135.595457,2.26697785 135.595457,2.76951291 C135.595457,3.38977473 135.283135,3.43545974 135.107453,3.43545974 L134.887408,3.43545974 L135.725,4.275361 L135.228123,4.275361 L134.482808,3.52682975 C134.406585,3.4762931 134.363841,3.38895781 134.371011,3.29840472 C134.371011,3.13499296 134.491681,3.13499296 134.564438,3.13499296 L134.887408,3.13499296 C135.016951,3.13499296 135.21925,3.13499296 135.21925,2.9592814 L135.21925,2.64124347 C135.218292,2.56734664 135.185626,2.49734361 135.129415,2.44872568 C135.073203,2.40010776 134.998755,2.37746743 134.924673,2.38646171 L134.177584,2.38646171 C134.067561,2.38646171 134.021422,2.40403287 134.021422,2.54987346 L134.021422,4.28414658 L133.641667,4.28941793 Z"/>
    </g>
</svg>